%FSLAX44Y44*%
%MOMM*%
G71*
G01*
G75*
G04 Layer_Color=16711935*
%ADD10R,1.2000X1.2000*%
%ADD11R,1.0000X1.3000*%
%ADD12R,2.0000X5.5000*%
%ADD13O,0.5000X1.6500*%
%ADD14O,1.6500X0.5000*%
%ADD15R,1.3000X1.0000*%
%ADD16R,2.0000X2.5000*%
%ADD17R,0.5000X2.3000*%
%ADD18C,0.3000*%
%ADD19C,0.4000*%
%ADD20C,0.2000*%
%ADD21C,1.5000*%
%ADD22R,1.5000X1.5000*%
%ADD23R,1.5000X1.5000*%
%ADD24C,0.6000*%
%ADD25C,1.0000*%
%ADD26C,0.2500*%
%ADD27C,0.6000*%
%ADD28C,0.1800*%
%ADD29C,0.2032*%
%ADD30R,1.4032X1.4032*%
%ADD31R,1.2032X1.5032*%
%ADD32R,2.2032X5.7032*%
%ADD33O,0.7032X1.8532*%
%ADD34O,1.8532X0.7032*%
%ADD35R,1.5032X1.2032*%
%ADD36R,2.2032X2.7032*%
%ADD37R,0.7032X2.5032*%
%ADD38C,1.7032*%
%ADD39R,1.7032X1.7032*%
%ADD40R,1.7032X1.7032*%
%ADD41C,0.8032*%
%ADD42C,1.2032*%
D38*
X209550Y42910D02*
D03*
Y17510D02*
D03*
X184150Y42910D02*
D03*
Y17510D02*
D03*
X158750Y42910D02*
D03*
Y17510D02*
D03*
X133350Y42910D02*
D03*
Y17510D02*
D03*
X107950Y42910D02*
D03*
Y17510D02*
D03*
X82550Y42910D02*
D03*
Y17510D02*
D03*
X57150Y42910D02*
D03*
Y17510D02*
D03*
X31750Y42910D02*
D03*
X19050Y243000D02*
D03*
Y268400D02*
D03*
Y293800D02*
D03*
X231600Y242650D02*
D03*
Y268050D02*
D03*
Y293450D02*
D03*
D39*
X31750Y17510D02*
D03*
D40*
X19050Y319200D02*
D03*
X231600Y318850D02*
D03*
D41*
X103001Y293670D02*
D03*
X147000D02*
D03*
D42*
X36000Y154000D02*
D03*
X217000Y156000D02*
D03*
Y142000D02*
D03*
Y128000D02*
D03*
Y114000D02*
D03*
Y100000D02*
D03*
X169000Y147000D02*
D03*
Y161000D02*
D03*
X85000Y80000D02*
D03*
Y94000D02*
D03*
X128000Y151000D02*
D03*
X85000Y136000D02*
D03*
Y122000D02*
D03*
Y108000D02*
D03*
X157000Y122000D02*
D03*
X171000D02*
D03*
X102000Y80000D02*
D03*
X117000D02*
D03*
X118000Y288000D02*
D03*
X95000Y244000D02*
D03*
M02*
