%FSLAX44Y44*%
%MOMM*%
G71*
G01*
G75*
G04 Layer_Color=65535*
%ADD10R,1.2000X1.2000*%
%ADD11R,1.0000X1.3000*%
%ADD12R,2.0000X5.5000*%
%ADD13O,0.5000X1.6500*%
%ADD14O,1.6500X0.5000*%
%ADD15R,1.3000X1.0000*%
%ADD16R,2.0000X2.5000*%
%ADD17R,0.5000X2.3000*%
%ADD18C,0.3000*%
%ADD19C,0.4000*%
%ADD20C,0.2000*%
%ADD21C,1.5000*%
%ADD22R,1.5000X1.5000*%
%ADD23R,1.5000X1.5000*%
%ADD24C,0.6000*%
%ADD25C,1.0000*%
%ADD26C,0.2500*%
%ADD27C,0.6000*%
%ADD28C,0.1800*%
%ADD29C,0.2032*%
D20*
X187000Y254000D02*
X207000D01*
X187000D02*
Y301000D01*
X207000Y254000D02*
Y301000D01*
X187000D02*
X207000D01*
X187000Y299000D02*
X207000D01*
X187000Y297000D02*
X207000D01*
X19050Y55610D02*
X222250D01*
X19050Y4810D02*
X222250D01*
X19050D02*
Y55610D01*
X222250Y4810D02*
Y55610D01*
X6350Y331900D02*
X31750D01*
Y230300D02*
Y331900D01*
X6350Y230300D02*
Y331900D01*
Y230300D02*
X31750D01*
X66800Y209480D02*
X74300D01*
X25300Y95480D02*
X32800D01*
X25300D02*
Y209480D01*
X32800D01*
X66800Y95480D02*
X74300D01*
Y209480D01*
X120500Y110500D02*
X179500D01*
X120500Y169500D02*
X179500D01*
X120500Y110500D02*
Y169500D01*
X179500Y110500D02*
Y169500D01*
X218900Y331550D02*
X244300D01*
Y229950D02*
Y331550D01*
X218900Y229950D02*
Y331550D01*
Y229950D02*
X244300D01*
X147500Y255170D02*
X155500D01*
X94501D02*
X102500D01*
X174501Y338170D02*
Y347170D01*
Y283170D02*
Y305170D01*
X75500Y283170D02*
Y305170D01*
Y338170D02*
Y347170D01*
X174501D01*
X8449Y209944D02*
X6783Y208278D01*
Y204946D01*
X8449Y203280D01*
X15114D01*
X16780Y204946D01*
Y208278D01*
X15114Y209944D01*
X16780Y213277D02*
Y216609D01*
Y214943D01*
X6783D01*
X8449Y213277D01*
X7179Y91834D02*
X5513Y90168D01*
Y86836D01*
X7179Y85170D01*
X13844D01*
X15510Y86836D01*
Y90168D01*
X13844Y91834D01*
X15510Y101831D02*
Y95167D01*
X8845Y101831D01*
X7179D01*
X5513Y100165D01*
Y96833D01*
X7179Y95167D01*
X57669Y239664D02*
X56003Y237998D01*
Y234666D01*
X57669Y233000D01*
X64334D01*
X66000Y234666D01*
Y237998D01*
X64334Y239664D01*
X57669Y242997D02*
X56003Y244663D01*
Y247995D01*
X57669Y249661D01*
X59335D01*
X61002Y247995D01*
Y246329D01*
Y247995D01*
X62668Y249661D01*
X64334D01*
X66000Y247995D01*
Y244663D01*
X64334Y242997D01*
X72669Y239664D02*
X71003Y237998D01*
Y234666D01*
X72669Y233000D01*
X79334D01*
X81000Y234666D01*
Y237998D01*
X79334Y239664D01*
X81000Y247995D02*
X71003D01*
X76002Y242997D01*
Y249661D01*
X179664Y77331D02*
X177998Y78997D01*
X174666D01*
X173000Y77331D01*
Y70666D01*
X174666Y69000D01*
X177998D01*
X179664Y70666D01*
X189661Y78997D02*
X182997D01*
Y73998D01*
X186329Y75665D01*
X187995D01*
X189661Y73998D01*
Y70666D01*
X187995Y69000D01*
X184663D01*
X182997Y70666D01*
X188024Y319031D02*
Y309034D01*
X193022D01*
X194688Y310700D01*
Y317365D01*
X193022Y319031D01*
X188024D01*
X198021Y309034D02*
X201353D01*
X199687D01*
Y319031D01*
X198021Y317365D01*
X54665Y345997D02*
X51332D01*
X52998D01*
Y337666D01*
X51332Y336000D01*
X49666D01*
X48000Y337666D01*
X57997Y336000D02*
X61329D01*
X59663D01*
Y345997D01*
X57997Y344331D01*
X19000Y62000D02*
Y71997D01*
X23998D01*
X25665Y70331D01*
Y66998D01*
X23998Y65332D01*
X19000D01*
X28997Y62000D02*
X32329D01*
X30663D01*
Y71997D01*
X28997Y70331D01*
X10000Y337000D02*
Y346997D01*
X14998D01*
X16665Y345331D01*
Y341998D01*
X14998Y340332D01*
X10000D01*
X26661Y337000D02*
X19997D01*
X26661Y343665D01*
Y345331D01*
X24995Y346997D01*
X21663D01*
X19997Y345331D01*
X224000Y336000D02*
Y345997D01*
X228998D01*
X230665Y344331D01*
Y340998D01*
X228998Y339332D01*
X224000D01*
X233997Y344331D02*
X235663Y345997D01*
X238995D01*
X240661Y344331D01*
Y342664D01*
X238995Y340998D01*
X237329D01*
X238995D01*
X240661Y339332D01*
Y337666D01*
X238995Y336000D01*
X235663D01*
X233997Y337666D01*
X202000Y200000D02*
X192003D01*
Y204998D01*
X193669Y206665D01*
X197002D01*
X198668Y204998D01*
Y200000D01*
Y203332D02*
X202000Y206665D01*
Y209997D02*
Y213329D01*
Y211663D01*
X192003D01*
X193669Y209997D01*
X218000Y200000D02*
X208003D01*
Y204998D01*
X209669Y206665D01*
X213002D01*
X214668Y204998D01*
Y200000D01*
Y203332D02*
X218000Y206665D01*
Y216661D02*
Y209997D01*
X211336Y216661D01*
X209669D01*
X208003Y214995D01*
Y211663D01*
X209669Y209997D01*
X234000Y200000D02*
X224003D01*
Y204998D01*
X225669Y206665D01*
X229002D01*
X230668Y204998D01*
Y200000D01*
Y203332D02*
X234000Y206665D01*
X225669Y209997D02*
X224003Y211663D01*
Y214995D01*
X225669Y216661D01*
X227335D01*
X229002Y214995D01*
Y213329D01*
Y214995D01*
X230668Y216661D01*
X232334D01*
X234000Y214995D01*
Y211663D01*
X232334Y209997D01*
X204000Y71000D02*
Y80997D01*
X208998D01*
X210665Y79331D01*
Y75998D01*
X208998Y74332D01*
X204000D01*
X207332D02*
X210665Y71000D01*
X218995D02*
Y80997D01*
X213997Y75998D01*
X220661D01*
X240000Y162000D02*
X230003D01*
Y166998D01*
X231669Y168664D01*
X235002D01*
X236668Y166998D01*
Y162000D01*
Y165332D02*
X240000Y168664D01*
X230003Y178661D02*
Y171997D01*
X235002D01*
X233335Y175329D01*
Y176995D01*
X235002Y178661D01*
X238334D01*
X240000Y176995D01*
Y173663D01*
X238334Y171997D01*
X98000Y187997D02*
Y179666D01*
X99666Y178000D01*
X102998D01*
X104664Y179666D01*
Y187997D01*
X107997Y178000D02*
X111329D01*
X109663D01*
Y187997D01*
X107997Y186331D01*
X80000Y160997D02*
Y159331D01*
X83332Y155998D01*
X86664Y159331D01*
Y160997D01*
X83332Y155998D02*
Y151000D01*
X89997D02*
X93329D01*
X91663D01*
Y160997D01*
X89997Y159331D01*
D26*
X35050Y199980D02*
G03*
X35050Y199980I-1250J0D01*
G01*
X115000Y98000D02*
G03*
X115000Y98000I-1250J0D01*
G01*
X142250Y248670D02*
G03*
X142250Y248670I-1250J0D01*
G01*
D27*
X133500Y120500D02*
G03*
X133500Y120500I-3000J0D01*
G01*
D28*
X3800Y160250D02*
Y198050D01*
Y160250D02*
X19600D01*
Y198050D01*
X3800D02*
X19600D01*
Y109450D02*
Y147250D01*
X3800D02*
X19600D01*
X3800Y109450D02*
Y147250D01*
Y109450D02*
X19600D01*
X143900Y199100D02*
Y236900D01*
X128100D02*
X143900D01*
X128100Y199100D02*
Y236900D01*
Y199100D02*
X143900D01*
X164900D02*
Y236900D01*
X149100D02*
X164900D01*
X149100Y199100D02*
Y236900D01*
Y199100D02*
X164900D01*
X131100Y81900D02*
X168900D01*
X131100Y66100D02*
Y81900D01*
Y66100D02*
X168900D01*
Y81900D01*
X241900Y71100D02*
Y108900D01*
X226100D02*
X241900D01*
X226100Y71100D02*
Y108900D01*
Y71100D02*
X241900D01*
X86100Y199100D02*
Y236900D01*
Y199100D02*
X101900D01*
Y236900D01*
X86100D02*
X101900D01*
X107100Y199100D02*
Y236900D01*
Y199100D02*
X122900D01*
Y236900D01*
X107100D02*
X122900D01*
X170100Y199100D02*
Y236900D01*
Y199100D02*
X185900D01*
Y236900D01*
X170100D02*
X185900D01*
X226100Y119100D02*
Y156900D01*
Y119100D02*
X241900D01*
Y156900D01*
X226100D02*
X241900D01*
D29*
X224790Y37830D02*
X229022D01*
X226906D01*
Y50526D01*
X224790Y48410D01*
X243834Y50526D02*
X239602Y48410D01*
X235370Y44178D01*
Y39946D01*
X237486Y37830D01*
X241718D01*
X243834Y39946D01*
Y42062D01*
X241718Y44178D01*
X235370D01*
X224790Y12430D02*
X229022D01*
X226906D01*
Y25126D01*
X224790Y23010D01*
X243834Y25126D02*
X235370D01*
Y18778D01*
X239602Y20894D01*
X241718D01*
X243834Y18778D01*
Y14546D01*
X241718Y12430D01*
X237486D01*
X235370Y14546D01*
X6350Y12430D02*
X10582D01*
X8466D01*
Y25126D01*
X6350Y23010D01*
X14814Y37830D02*
X6350D01*
X14814Y46294D01*
Y48410D01*
X12698Y50526D01*
X8466D01*
X6350Y48410D01*
M02*
