M48
;Layer_Color=9474304
;FILE_FORMAT=4:4
METRIC,LZ
;TYPE=PLATED
T1F00S00C0.5000
T2F00S00C0.9000
;TYPE=NON_PLATED
T3F00S00C1.0000
%
T01
X00085Y0008
Y00094
Y00108
Y00122
Y00136
X00128Y00151
X00169Y00147
Y00161
X00171Y00122
X00157
X00217Y00128
Y00142
Y00156
Y00114
Y001
X00117Y0008
X00102
X00036Y00154
X00095Y00244
X00118Y00288
T02
X0003175Y0001751
X0005715
X0008255
X0010795
X0013335
X0015875
X0018415
X0020955
Y0004291
X0018415
X0015875
X0013335
X0010795
X0008255
X0005715
X0003175
X0001905Y00243
Y002684
Y002938
Y003192
X002316Y0031885
Y0029345
Y0026805
Y0024265
T03
X00103001Y0029367
X00147
M30
