%FSLAX44Y44*%
%MOMM*%
G71*
G01*
G75*
G04 Layer_Physical_Order=1*
G04 Layer_Color=255*
%ADD10R,1.2000X1.2000*%
%ADD11R,1.0000X1.3000*%
%ADD12R,2.0000X5.5000*%
%ADD13O,0.5000X1.6500*%
%ADD14O,1.6500X0.5000*%
%ADD15R,1.3000X1.0000*%
%ADD16R,2.0000X2.5000*%
%ADD17R,0.5000X2.3000*%
%ADD18C,0.3000*%
%ADD19C,0.4000*%
%ADD20C,0.2000*%
%ADD21C,1.5000*%
%ADD22R,1.5000X1.5000*%
%ADD23R,1.5000X1.5000*%
%ADD24C,0.6000*%
%ADD25C,1.0000*%
G36*
X245000Y152093D02*
X243236Y151151D01*
X243061Y151268D01*
X242802Y151319D01*
X241500Y151578D01*
Y156500D01*
X226500D01*
Y156500D01*
X224499D01*
X224307Y157958D01*
X223551Y159782D01*
X222349Y161349D01*
X220782Y162551D01*
X218958Y163307D01*
X217000Y163565D01*
X215728Y163397D01*
X214361Y164857D01*
X214588Y166000D01*
Y193000D01*
X214239Y194756D01*
X213244Y196244D01*
X197744Y211744D01*
X196256Y212739D01*
X194500Y213088D01*
X185500D01*
Y217086D01*
X185500D01*
X185500Y217086D01*
X185500Y217500D01*
Y218000D01*
Y218500D01*
X185500Y218914D01*
X185500Y218914D01*
X185500D01*
Y236500D01*
X185500Y236500D01*
X185500D01*
X185057Y237569D01*
X200244Y252756D01*
X201239Y254244D01*
X201588Y256000D01*
X201588Y256000D01*
Y256000D01*
Y256000D01*
X201588D01*
X201588D01*
X201588Y256000D01*
X205500D01*
Y273000D01*
X188500D01*
Y256000D01*
X188500Y256000D01*
X188500D01*
X189089Y254578D01*
X174756Y240244D01*
X173761Y238756D01*
X173412Y237000D01*
Y236500D01*
X170500D01*
Y218914D01*
X170500D01*
X170500Y218914D01*
X170500Y218500D01*
Y217500D01*
D01*
D01*
X170500D01*
Y199500D01*
X185500D01*
Y203912D01*
X192600D01*
X205412Y191099D01*
Y169066D01*
X203866Y167798D01*
X202848Y168000D01*
X202460Y169951D01*
X201355Y171605D01*
X199701Y172710D01*
X197750Y173098D01*
X186250D01*
X184299Y172710D01*
X183842Y172405D01*
X183590Y172540D01*
X182358Y173772D01*
X182710Y174299D01*
X183098Y176250D01*
Y187750D01*
X182710Y189701D01*
X181605Y191355D01*
X179951Y192460D01*
X178000Y192848D01*
X176049Y192460D01*
X174395Y191355D01*
X173605D01*
X171951Y192460D01*
X171500Y192550D01*
Y181998D01*
Y171450D01*
X170846Y171320D01*
X171539Y170025D01*
X170400Y168380D01*
X169000Y168565D01*
X167042Y168307D01*
X165218Y167551D01*
X163651Y166349D01*
X162449Y164782D01*
X161693Y162958D01*
X161435Y161000D01*
X161693Y159042D01*
X162449Y157218D01*
X163651Y155651D01*
X164499Y155000D01*
Y153000D01*
X163651Y152349D01*
X162449Y150782D01*
X161693Y148958D01*
X161435Y147000D01*
X161693Y145042D01*
X162449Y143218D01*
X163651Y141651D01*
X165218Y140449D01*
X167042Y139693D01*
X169000Y139435D01*
X170958Y139693D01*
X172782Y140449D01*
X174349Y141651D01*
X175551Y143218D01*
X176307Y145042D01*
X176565Y147000D01*
X176356Y148588D01*
X179422Y151655D01*
X181336Y151074D01*
X181540Y150049D01*
X182645Y148395D01*
Y147605D01*
X181540Y145951D01*
X181152Y144000D01*
X181540Y142049D01*
X182645Y140395D01*
Y139605D01*
X181540Y137951D01*
X181152Y136000D01*
X181540Y134049D01*
X182645Y132395D01*
Y131605D01*
X181540Y129951D01*
X181152Y128000D01*
X181540Y126049D01*
X182645Y124395D01*
Y123605D01*
X181540Y121951D01*
X181170Y120092D01*
X180326Y119836D01*
X179909Y119753D01*
X178449Y121120D01*
X178565Y122000D01*
X178307Y123958D01*
X177551Y125782D01*
X176349Y127349D01*
X174782Y128551D01*
X172958Y129307D01*
X171000Y129565D01*
X169042Y129307D01*
X167218Y128551D01*
X165651Y127349D01*
X165000Y126501D01*
X163000D01*
X162349Y127349D01*
X160782Y128551D01*
X158958Y129307D01*
X157000Y129565D01*
X155042Y129307D01*
X153218Y128551D01*
X151651Y127349D01*
X150449Y125782D01*
X149693Y123958D01*
X149435Y122000D01*
X149693Y120042D01*
X150449Y118218D01*
X151651Y116651D01*
X153218Y115449D01*
X155042Y114693D01*
X157000Y114435D01*
X158588Y114644D01*
X162396Y110837D01*
X162164Y109674D01*
X161908Y108830D01*
X162000Y108848D01*
X163500Y108550D01*
Y97998D01*
Y87450D01*
X163951Y87540D01*
X165605Y88645D01*
X166395D01*
X168049Y87540D01*
X170000Y87152D01*
X171951Y87540D01*
X173605Y88645D01*
X174395D01*
X176049Y87540D01*
X178000Y87152D01*
X179951Y87540D01*
X181605Y88645D01*
X182710Y90299D01*
X183098Y92250D01*
Y103750D01*
X182710Y105701D01*
X182358Y106228D01*
X183590Y107460D01*
X183842Y107595D01*
X184299Y107290D01*
X186250Y106902D01*
X197750D01*
X199701Y107290D01*
X201355Y108395D01*
X201355Y108395D01*
X201355Y108395D01*
X202232Y109439D01*
D01*
D01*
X203116Y108116D01*
X209644Y101588D01*
X209435Y100000D01*
X209693Y98042D01*
X210449Y96218D01*
X211651Y94651D01*
X213218Y93449D01*
X215042Y92693D01*
X217000Y92435D01*
X218958Y92693D01*
X220782Y93449D01*
X222349Y94651D01*
X223324Y95922D01*
X226500D01*
Y90500D01*
X226500Y90500D01*
X226500Y89500D01*
X226500D01*
Y71500D01*
X230922D01*
Y37689D01*
X227311Y34078D01*
X217986D01*
X217014Y35345D01*
X216754Y35872D01*
X218285Y37867D01*
X219293Y40300D01*
X219439Y41410D01*
X199661D01*
X199807Y40300D01*
X200815Y37867D01*
X202346Y35872D01*
X202086Y35345D01*
X201114Y34078D01*
X192586D01*
X191614Y35345D01*
X191354Y35872D01*
X192885Y37867D01*
X193893Y40300D01*
X194236Y42910D01*
X193893Y45521D01*
X192885Y47953D01*
X191282Y50042D01*
X189193Y51645D01*
X186761Y52653D01*
X184150Y52996D01*
X181539Y52653D01*
X179107Y51645D01*
X177018Y50042D01*
X175415Y47953D01*
X174407Y45521D01*
X174064Y42910D01*
X174407Y40300D01*
X175415Y37867D01*
X176946Y35872D01*
X176686Y35345D01*
X175714Y34078D01*
X167186D01*
X166214Y35345D01*
X165954Y35872D01*
X167485Y37867D01*
X168493Y40300D01*
X168836Y42910D01*
X168493Y45521D01*
X167485Y47953D01*
X165882Y50042D01*
X163793Y51645D01*
X161360Y52653D01*
X158750Y52996D01*
X156139Y52653D01*
X153707Y51645D01*
X151618Y50042D01*
X150015Y47953D01*
X149007Y45521D01*
X148664Y42910D01*
X149007Y40300D01*
X150015Y37867D01*
X151546Y35872D01*
X151286Y35345D01*
X150314Y34078D01*
X141786D01*
X140814Y35345D01*
X140554Y35872D01*
X142085Y37867D01*
X143093Y40300D01*
X143436Y42910D01*
X143093Y45521D01*
X142085Y47953D01*
X140482Y50042D01*
X138393Y51645D01*
X135961Y52653D01*
X133350Y52996D01*
X130739Y52653D01*
X128307Y51645D01*
X126382Y50168D01*
X125464Y50620D01*
X124588Y51293D01*
Y66100D01*
X127900Y69412D01*
X131500D01*
Y66500D01*
X149500D01*
X149500Y66500D01*
Y66500D01*
X149500D01*
X150500D01*
X150914Y66500D01*
X150914Y66500D01*
Y66500D01*
X158000D01*
Y73998D01*
Y81500D01*
X150914D01*
Y81500D01*
X150914Y81500D01*
X150500Y81500D01*
X150000D01*
X149500D01*
X149086Y81500D01*
X149086Y81500D01*
Y81500D01*
X145088D01*
Y81500D01*
X144739Y83256D01*
X143744Y84744D01*
X142588Y85900D01*
Y86254D01*
X144134Y87523D01*
X146000Y87152D01*
X147951Y87540D01*
X149605Y88645D01*
X150395D01*
X152049Y87540D01*
X152500Y87450D01*
Y97998D01*
Y108550D01*
X152049Y108460D01*
X150395Y107355D01*
X149605D01*
X147951Y108460D01*
X146000Y108848D01*
X144134Y108477D01*
X142588Y109746D01*
Y158000D01*
X142239Y159756D01*
X141244Y161244D01*
X134588Y167901D01*
Y170254D01*
X136134Y171523D01*
X138000Y171152D01*
X139951Y171540D01*
X141605Y172645D01*
X142395D01*
X144049Y171540D01*
X146000Y171152D01*
X147951Y171540D01*
X149605Y172645D01*
X150395D01*
X152049Y171540D01*
X154000Y171152D01*
X155951Y171540D01*
X157605Y172645D01*
X158395D01*
X160049Y171540D01*
X160500Y171450D01*
Y181998D01*
Y192550D01*
X161292Y192708D01*
X160789Y193211D01*
X160034Y194341D01*
X160768Y195439D01*
X160819Y195698D01*
X161078Y197000D01*
X161078Y197000D01*
Y199500D01*
X164500D01*
Y217500D01*
D01*
Y217500D01*
X164500Y217500D01*
Y218500D01*
X164500D01*
Y236500D01*
X163578D01*
X161078Y237000D01*
X160819Y238302D01*
X160768Y238561D01*
X159884Y239884D01*
X154884Y244884D01*
X153561Y245768D01*
X153302Y245819D01*
X152000Y246078D01*
X152000Y246078D01*
X143689D01*
X139945Y249822D01*
X140711Y251670D01*
X146000D01*
Y279670D01*
X145588D01*
Y283000D01*
X145588Y283000D01*
X145588Y283000D01*
Y283000D01*
X145588D01*
X145588Y283000D01*
X145251Y284696D01*
X146618Y286156D01*
X147000Y286105D01*
X148958Y286363D01*
X150782Y287119D01*
X152349Y288321D01*
X153551Y289888D01*
X154307Y291712D01*
X154565Y293670D01*
X154307Y295628D01*
X153551Y297452D01*
X152349Y299019D01*
X150782Y300221D01*
X148958Y300977D01*
X147000Y301235D01*
X145042Y300977D01*
X143218Y300221D01*
X141651Y299019D01*
X140449Y297452D01*
X139693Y295628D01*
X139435Y293670D01*
X137123Y293366D01*
X122244Y308244D01*
X120756Y309239D01*
X119000Y309588D01*
X97000D01*
X95244Y309239D01*
X94764Y308918D01*
X93000Y309861D01*
Y336670D01*
X68000D01*
Y306670D01*
X89568D01*
X90334Y304822D01*
X81100Y295588D01*
X66000D01*
X64244Y295239D01*
X62756Y294244D01*
X55756Y287244D01*
X54761Y285756D01*
X54412Y284000D01*
X54412Y284000D01*
X54412D01*
X54412Y284000D01*
X54412D01*
Y245000D01*
X54412Y245000D01*
X54412D01*
X54761Y243244D01*
X55756Y241756D01*
X71412Y226099D01*
Y214000D01*
X71761Y212244D01*
X72756Y210756D01*
X78256Y205256D01*
X79744Y204261D01*
X81500Y203912D01*
X86500D01*
Y199500D01*
X89412D01*
Y194000D01*
X89412Y194000D01*
X89412D01*
X89761Y192244D01*
X90756Y190756D01*
X102756Y178756D01*
X102756D01*
X102756Y178756D01*
X102756D01*
X102756Y178756D01*
Y178756D01*
X102756Y178756D01*
Y178756D01*
X104244Y177761D01*
X106000Y177412D01*
X116902D01*
Y176250D01*
X117290Y174299D01*
X117642Y173772D01*
X116228Y172358D01*
X115701Y172710D01*
X113750Y173098D01*
X102250D01*
X100299Y172710D01*
X98645Y171605D01*
X97540Y169951D01*
X97152Y168000D01*
X97540Y166049D01*
X97678Y165842D01*
X96735Y164078D01*
X57689D01*
X53878Y167889D01*
Y169980D01*
X62300D01*
Y229980D01*
X37300D01*
Y203923D01*
X36678Y203799D01*
X36419Y203748D01*
X35096Y202864D01*
X24961Y192728D01*
X19200D01*
Y197650D01*
X5000D01*
Y345000D01*
X245000D01*
Y152093D01*
D02*
G37*
G36*
X37300Y190919D02*
Y169980D01*
X45722D01*
Y166200D01*
X45722Y166200D01*
X45981Y164898D01*
X46032Y164639D01*
X46916Y163316D01*
X46916Y163316D01*
X46916D01*
Y163316D01*
X46916Y163316D01*
X53116Y157116D01*
X53290Y157000D01*
Y155000D01*
X53116Y154884D01*
X46916Y148684D01*
X46032Y147361D01*
X45981Y147102D01*
X45722Y145800D01*
X45722Y145800D01*
Y134980D01*
X37300D01*
Y109058D01*
X34709D01*
X22034Y121734D01*
X20711Y122618D01*
X20452Y122669D01*
X19200Y122918D01*
Y127850D01*
D01*
Y127850D01*
X19200Y127850D01*
Y128850D01*
X19200D01*
Y136350D01*
X11697D01*
Y137847D01*
X10200D01*
Y146850D01*
X5000D01*
Y160650D01*
X10200D01*
Y169653D01*
X11697D01*
Y171150D01*
X19200D01*
Y178650D01*
D01*
Y178650D01*
X19200Y178650D01*
Y179650D01*
X19200D01*
Y184572D01*
X26650D01*
X26650Y184572D01*
X27952Y184831D01*
X28211Y184882D01*
X29534Y185766D01*
X29534Y185766D01*
X29534Y185766D01*
X35452Y191684D01*
X37300Y190919D01*
D02*
G37*
G36*
X97678Y146158D02*
X97540Y145951D01*
X97152Y144000D01*
X97540Y142049D01*
X98645Y140395D01*
Y139605D01*
X97540Y137951D01*
X97152Y136000D01*
X97540Y134049D01*
X97554Y134029D01*
X96008Y132760D01*
X92534Y136234D01*
X92307Y137958D01*
X91551Y139782D01*
X90349Y141349D01*
X88782Y142551D01*
X86958Y143307D01*
X85000Y143565D01*
X83042Y143307D01*
X81218Y142551D01*
X79651Y141349D01*
X78449Y139782D01*
X77693Y137958D01*
X77435Y136000D01*
X77693Y134042D01*
X78449Y132218D01*
X79651Y130651D01*
X80499Y130000D01*
Y128000D01*
X79651Y127349D01*
X78449Y125782D01*
X77693Y123958D01*
X77435Y122000D01*
X77693Y120042D01*
X78449Y118218D01*
X79651Y116651D01*
X80499Y116000D01*
Y114000D01*
X79651Y113349D01*
X78449Y111782D01*
X77693Y109958D01*
X77435Y108000D01*
X77693Y106042D01*
X78449Y104218D01*
X79651Y102651D01*
X80499Y102000D01*
Y100000D01*
X79651Y99349D01*
X78676Y98078D01*
X77000D01*
X75439Y97768D01*
X74116Y96884D01*
X74116Y96884D01*
X70116Y92884D01*
X69232Y91561D01*
X69181Y91302D01*
X68922Y90000D01*
X68922Y90000D01*
Y71689D01*
X63311Y66078D01*
X53000D01*
X53000Y66078D01*
X51698Y65819D01*
X51439Y65768D01*
X50116Y64884D01*
X50116Y64884D01*
X41116Y55884D01*
X40232Y54561D01*
X40181Y54302D01*
X39922Y53000D01*
X39922Y53000D01*
Y51505D01*
X38128Y50621D01*
X36793Y51645D01*
X34360Y52653D01*
X31750Y52996D01*
X29139Y52653D01*
X26707Y51645D01*
X24618Y50042D01*
X23015Y47953D01*
X22007Y45521D01*
X21664Y42910D01*
X22007Y40300D01*
X23015Y37867D01*
X24618Y35778D01*
X26707Y34175D01*
X29139Y33167D01*
X31750Y32824D01*
X34360Y33167D01*
X36793Y34175D01*
X38128Y35199D01*
X39922Y34315D01*
Y31000D01*
X39922Y31000D01*
X40181Y29698D01*
X40232Y29439D01*
X40343Y29274D01*
X39400Y27510D01*
X21750D01*
Y7510D01*
X41750D01*
Y24869D01*
X43598Y25635D01*
X47907Y21326D01*
X47407Y20120D01*
X47064Y17510D01*
X47407Y14899D01*
X48415Y12467D01*
X50018Y10378D01*
X52107Y8775D01*
X54539Y7767D01*
X57150Y7424D01*
X59760Y7767D01*
X62193Y8775D01*
X64282Y10378D01*
X65885Y12467D01*
X66893Y14899D01*
X67236Y17510D01*
X66893Y20120D01*
X65885Y22553D01*
X64282Y24642D01*
X62193Y26245D01*
X59760Y27253D01*
X57150Y27596D01*
X54539Y27253D01*
X53815Y26953D01*
X48078Y32689D01*
Y35195D01*
X49972Y35838D01*
X50018Y35778D01*
X52107Y34175D01*
X54539Y33167D01*
X57150Y32824D01*
X59760Y33167D01*
X62193Y34175D01*
X64282Y35778D01*
X65885Y37867D01*
X66893Y40300D01*
X67236Y42910D01*
X66893Y45521D01*
X66786Y45778D01*
X87884Y66876D01*
X87884Y66876D01*
X88768Y68199D01*
X89078Y69760D01*
Y73676D01*
X90349Y74651D01*
X91551Y76218D01*
X92307Y78042D01*
X92500Y79509D01*
X94500D01*
X94693Y78042D01*
X95449Y76218D01*
X96651Y74651D01*
X98218Y73449D01*
X100042Y72693D01*
X102000Y72435D01*
X103958Y72693D01*
X105782Y73449D01*
X107349Y74651D01*
X108500Y76151D01*
X110500D01*
X111651Y74651D01*
X113218Y73449D01*
X115042Y72693D01*
X115347Y72653D01*
X115833Y72168D01*
X116455Y70794D01*
X115761Y69756D01*
X115412Y68000D01*
Y52050D01*
X113618Y51165D01*
X112993Y51645D01*
X110561Y52653D01*
X109450Y52799D01*
Y42908D01*
Y33021D01*
X110561Y33167D01*
X112993Y34175D01*
X113618Y34655D01*
X115412Y33770D01*
Y30461D01*
X111723Y26771D01*
X110561Y27253D01*
X107950Y27596D01*
X105339Y27253D01*
X102907Y26245D01*
X100818Y24642D01*
X99215Y22553D01*
X98207Y20120D01*
X97864Y17510D01*
X98207Y14899D01*
X99215Y12467D01*
X100818Y10378D01*
X102907Y8775D01*
X105339Y7767D01*
X107950Y7424D01*
X110561Y7767D01*
X112993Y8775D01*
X115082Y10378D01*
X116685Y12467D01*
X117693Y14899D01*
X118036Y17510D01*
X117734Y19805D01*
X123244Y25316D01*
X123365Y25437D01*
X125339Y25111D01*
X125823Y24128D01*
X124615Y22553D01*
X123607Y20120D01*
X123264Y17510D01*
X123607Y14899D01*
X124615Y12467D01*
X126218Y10378D01*
X128307Y8775D01*
X130739Y7767D01*
X133350Y7424D01*
X135961Y7767D01*
X138393Y8775D01*
X140482Y10378D01*
X142085Y12467D01*
X143093Y14899D01*
X143436Y17510D01*
X143093Y20120D01*
X142085Y22553D01*
X140482Y24642D01*
X140916Y25922D01*
X150339D01*
X151223Y24128D01*
X150015Y22553D01*
X149007Y20120D01*
X148664Y17510D01*
X149007Y14899D01*
X150015Y12467D01*
X151618Y10378D01*
X153707Y8775D01*
X156139Y7767D01*
X158750Y7424D01*
X161360Y7767D01*
X163793Y8775D01*
X165882Y10378D01*
X167485Y12467D01*
X168493Y14899D01*
X168836Y17510D01*
X168493Y20120D01*
X167485Y22553D01*
X165882Y24642D01*
X166316Y25922D01*
X175739D01*
X176623Y24128D01*
X175415Y22553D01*
X174407Y20120D01*
X174064Y17510D01*
X174407Y14899D01*
X175415Y12467D01*
X177018Y10378D01*
X179107Y8775D01*
X181539Y7767D01*
X184150Y7424D01*
X186761Y7767D01*
X189193Y8775D01*
X191282Y10378D01*
X192885Y12467D01*
X193893Y14899D01*
X194236Y17510D01*
X193893Y20120D01*
X192885Y22553D01*
X191282Y24642D01*
X191716Y25922D01*
X201139D01*
X202023Y24128D01*
X200815Y22553D01*
X199807Y20120D01*
X199464Y17510D01*
X199807Y14899D01*
X200815Y12467D01*
X202418Y10378D01*
X204507Y8775D01*
X206940Y7767D01*
X209550Y7424D01*
X212160Y7767D01*
X214593Y8775D01*
X216682Y10378D01*
X218285Y12467D01*
X219293Y14899D01*
X219636Y17510D01*
X219293Y20120D01*
X218285Y22553D01*
X216682Y24642D01*
X217116Y25922D01*
X229000D01*
X229000Y25922D01*
X230302Y26181D01*
X230561Y26232D01*
X231884Y27116D01*
X231884Y27116D01*
X231884Y27116D01*
X237884Y33116D01*
X237884Y33116D01*
X238768Y34439D01*
X239078Y36000D01*
Y71500D01*
X241500D01*
Y76422D01*
X241500Y76422D01*
X242802Y76681D01*
X243061Y76732D01*
X243236Y76849D01*
X245000Y75907D01*
Y5000D01*
X5000D01*
Y109850D01*
X19200D01*
Y110419D01*
X21048Y111185D01*
X30136Y102096D01*
X30136Y102096D01*
X31459Y101212D01*
X31718Y101161D01*
X33020Y100902D01*
X33020Y100902D01*
X37300D01*
Y74980D01*
X62300D01*
Y134980D01*
X53878D01*
Y144111D01*
X57689Y147922D01*
X96735D01*
X97678Y146158D01*
D02*
G37*
G36*
X135994Y281518D02*
X135228Y279670D01*
X110500D01*
Y265667D01*
Y251670D01*
X120922D01*
Y249000D01*
X120922Y249000D01*
X121181Y247698D01*
X121233Y247439D01*
X122117Y246116D01*
X129885Y238348D01*
X129119Y236500D01*
X128500D01*
Y218500D01*
X128500Y218500D01*
X128500Y217500D01*
X128500D01*
Y200667D01*
X126954Y199398D01*
X126000Y199588D01*
X122500D01*
Y217086D01*
X122500D01*
X122500Y217086D01*
X122500Y217500D01*
Y218000D01*
Y218500D01*
X122500Y218914D01*
X122500Y218914D01*
X122500D01*
Y226000D01*
X107500D01*
Y218914D01*
X107500D01*
X107500Y218914D01*
X107500Y218500D01*
Y217500D01*
D01*
D01*
X107500D01*
Y199500D01*
X108912D01*
X110412Y198000D01*
X110412Y198000D01*
D01*
X110761Y196244D01*
X111756Y194756D01*
X114756Y191756D01*
X116244Y190761D01*
X116244Y190761D01*
X116244D01*
X117290Y189701D01*
D01*
X117290D01*
X116902Y187750D01*
Y186588D01*
X107900D01*
X98588Y195900D01*
Y199500D01*
X101500D01*
Y217086D01*
X101500D01*
X101500Y217086D01*
X101500Y217500D01*
Y218000D01*
Y218500D01*
X101500Y218914D01*
X101500Y218914D01*
X101500D01*
Y226000D01*
X86500D01*
Y218914D01*
X86500D01*
X86500Y218914D01*
X86500Y218500D01*
Y217500D01*
D01*
D01*
X86500D01*
Y213088D01*
X83400D01*
X80588Y215900D01*
Y228000D01*
X80239Y229756D01*
X79244Y231244D01*
X63588Y246901D01*
Y282099D01*
X67901Y286412D01*
X83000D01*
X84756Y286761D01*
X86244Y287756D01*
X93733Y295245D01*
X95527Y294360D01*
X95436Y293670D01*
X95694Y291712D01*
X96450Y289888D01*
X97652Y288321D01*
X99219Y287119D01*
X101043Y286363D01*
X103001Y286105D01*
X104959Y286363D01*
X106783Y287119D01*
X108350Y288321D01*
X109552Y289888D01*
X110308Y291712D01*
X110566Y293670D01*
X110308Y295628D01*
X109552Y297452D01*
X108350Y299019D01*
X106783Y300221D01*
X106821Y300412D01*
X117100D01*
X135994Y281518D01*
D02*
G37*
%LPC*%
G36*
X19200Y168150D02*
X13200D01*
Y160650D01*
X19200D01*
Y168150D01*
D02*
G37*
G36*
Y146850D02*
X13200D01*
Y139350D01*
X19200D01*
Y146850D01*
D02*
G37*
G36*
X113500Y236500D02*
X107500D01*
Y229000D01*
X113500D01*
Y236500D01*
D02*
G37*
G36*
X168500Y192550D02*
X168049Y192460D01*
X166395Y191355D01*
X165605D01*
X163951Y192460D01*
X163500Y192550D01*
Y181998D01*
Y171450D01*
X163951Y171540D01*
X165605Y172645D01*
X166395D01*
X168049Y171540D01*
X168500Y171450D01*
Y181998D01*
Y192550D01*
D02*
G37*
G36*
X92500Y236500D02*
X86500D01*
Y229000D01*
X92500D01*
Y236500D01*
D02*
G37*
G36*
X101500D02*
X95500D01*
Y229000D01*
X101500D01*
Y236500D01*
D02*
G37*
G36*
X160500Y108550D02*
X160049Y108460D01*
X158395Y107355D01*
X157605D01*
X155951Y108460D01*
X155500Y108550D01*
Y97998D01*
Y87450D01*
X155951Y87540D01*
X157605Y88645D01*
X158395D01*
X160049Y87540D01*
X160500Y87450D01*
Y97998D01*
Y108550D01*
D02*
G37*
G36*
X106450Y41410D02*
X98061D01*
X98207Y40300D01*
X99215Y37867D01*
X100818Y35778D01*
X102907Y34175D01*
X105339Y33167D01*
X106450Y33021D01*
Y41410D01*
D02*
G37*
G36*
Y52799D02*
X105339Y52653D01*
X102907Y51645D01*
X100818Y50042D01*
X99215Y47953D01*
X98207Y45521D01*
X98061Y44410D01*
X106450D01*
Y52799D01*
D02*
G37*
G36*
X82550Y27596D02*
X79939Y27253D01*
X77507Y26245D01*
X75418Y24642D01*
X73815Y22553D01*
X72807Y20120D01*
X72464Y17510D01*
X72807Y14899D01*
X73815Y12467D01*
X75418Y10378D01*
X77507Y8775D01*
X79939Y7767D01*
X82550Y7424D01*
X85161Y7767D01*
X87593Y8775D01*
X89682Y10378D01*
X91285Y12467D01*
X92293Y14899D01*
X92636Y17510D01*
X92293Y20120D01*
X91285Y22553D01*
X89682Y24642D01*
X87593Y26245D01*
X85161Y27253D01*
X82550Y27596D01*
D02*
G37*
G36*
Y52996D02*
X79939Y52653D01*
X77507Y51645D01*
X75418Y50042D01*
X73815Y47953D01*
X72807Y45521D01*
X72464Y42910D01*
X72807Y40300D01*
X73815Y37867D01*
X75418Y35778D01*
X77507Y34175D01*
X79939Y33167D01*
X82550Y32824D01*
X85161Y33167D01*
X87593Y34175D01*
X89682Y35778D01*
X91285Y37867D01*
X92293Y40300D01*
X92636Y42910D01*
X92293Y45521D01*
X91285Y47953D01*
X89682Y50042D01*
X87593Y51645D01*
X85161Y52653D01*
X82550Y52996D01*
D02*
G37*
G36*
X168500Y72500D02*
X161000D01*
Y66500D01*
X168500D01*
Y72500D01*
D02*
G37*
G36*
Y81500D02*
X161000D01*
Y75500D01*
X168500D01*
Y81500D01*
D02*
G37*
G36*
X208050Y52799D02*
X206940Y52653D01*
X204507Y51645D01*
X202418Y50042D01*
X200815Y47953D01*
X199807Y45521D01*
X199661Y44410D01*
X208050D01*
Y52799D01*
D02*
G37*
G36*
X211050D02*
Y44410D01*
X219439D01*
X219293Y45521D01*
X218285Y47953D01*
X216682Y50042D01*
X214593Y51645D01*
X212160Y52653D01*
X211050Y52799D01*
D02*
G37*
G36*
X122500Y236500D02*
X116500D01*
Y229000D01*
X122500D01*
Y236500D01*
D02*
G37*
G36*
X19050Y303886D02*
X16439Y303543D01*
X14007Y302535D01*
X11918Y300932D01*
X10315Y298843D01*
X9307Y296411D01*
X8964Y293800D01*
X9307Y291189D01*
X10315Y288757D01*
X11918Y286668D01*
X14007Y285065D01*
X16439Y284057D01*
X19050Y283714D01*
X21660Y284057D01*
X24093Y285065D01*
X26182Y286668D01*
X27785Y288757D01*
X28793Y291189D01*
X29136Y293800D01*
X28793Y296411D01*
X27785Y298843D01*
X26182Y300932D01*
X24093Y302535D01*
X21660Y303543D01*
X19050Y303886D01*
D02*
G37*
G36*
X195500Y294000D02*
X188500D01*
Y287000D01*
X195500D01*
Y294000D01*
D02*
G37*
G36*
X205500Y284000D02*
X198500D01*
Y277000D01*
X205500D01*
Y284000D01*
D02*
G37*
G36*
X231600Y303536D02*
X228990Y303193D01*
X226557Y302185D01*
X224468Y300582D01*
X222865Y298493D01*
X221857Y296061D01*
X221514Y293450D01*
X221857Y290840D01*
X222865Y288407D01*
X224468Y286318D01*
X226557Y284715D01*
X228990Y283707D01*
X231600Y283364D01*
X234210Y283707D01*
X236643Y284715D01*
X238732Y286318D01*
X240335Y288407D01*
X241343Y290840D01*
X241686Y293450D01*
X241343Y296061D01*
X240335Y298493D01*
X238732Y300582D01*
X236643Y302185D01*
X234210Y303193D01*
X231600Y303536D01*
D02*
G37*
G36*
X241600Y328850D02*
X221600D01*
Y308850D01*
X241600D01*
Y328850D01*
D02*
G37*
G36*
X29050Y329200D02*
X9050D01*
Y309200D01*
X29050D01*
Y329200D01*
D02*
G37*
G36*
X205500Y294000D02*
X198500D01*
Y287000D01*
X205500D01*
Y294000D01*
D02*
G37*
G36*
X182000Y336670D02*
X157000D01*
Y306670D01*
X182000D01*
Y336670D01*
D02*
G37*
G36*
X195500Y284000D02*
X188500D01*
Y277000D01*
X195500D01*
Y284000D01*
D02*
G37*
G36*
X93000Y281670D02*
X68000D01*
Y251670D01*
X93000D01*
Y281670D01*
D02*
G37*
G36*
X107500Y264170D02*
X104001D01*
Y251670D01*
X107500D01*
Y264170D01*
D02*
G37*
G36*
X231600Y252736D02*
X228990Y252393D01*
X226557Y251385D01*
X224468Y249782D01*
X222865Y247693D01*
X221857Y245261D01*
X221514Y242650D01*
X221857Y240040D01*
X222865Y237607D01*
X224468Y235518D01*
X226557Y233915D01*
X228990Y232907D01*
X231600Y232564D01*
X234210Y232907D01*
X236643Y233915D01*
X238732Y235518D01*
X240335Y237607D01*
X241343Y240040D01*
X241686Y242650D01*
X241343Y245261D01*
X240335Y247693D01*
X238732Y249782D01*
X236643Y251385D01*
X234210Y252393D01*
X231600Y252736D01*
D02*
G37*
G36*
X19050Y253086D02*
X16439Y252743D01*
X14007Y251735D01*
X11918Y250132D01*
X10315Y248043D01*
X9307Y245611D01*
X8964Y243000D01*
X9307Y240389D01*
X10315Y237957D01*
X11918Y235868D01*
X14007Y234265D01*
X16439Y233257D01*
X19050Y232914D01*
X21660Y233257D01*
X24093Y234265D01*
X26182Y235868D01*
X27785Y237957D01*
X28793Y240389D01*
X29136Y243000D01*
X28793Y245611D01*
X27785Y248043D01*
X26182Y250132D01*
X24093Y251735D01*
X21660Y252743D01*
X19050Y253086D01*
D02*
G37*
G36*
Y278486D02*
X16439Y278143D01*
X14007Y277135D01*
X11918Y275532D01*
X10315Y273443D01*
X9307Y271010D01*
X8964Y268400D01*
X9307Y265790D01*
X10315Y263357D01*
X11918Y261268D01*
X14007Y259665D01*
X16439Y258657D01*
X19050Y258314D01*
X21660Y258657D01*
X24093Y259665D01*
X26182Y261268D01*
X27785Y263357D01*
X28793Y265790D01*
X29136Y268400D01*
X28793Y271010D01*
X27785Y273443D01*
X26182Y275532D01*
X24093Y277135D01*
X21660Y278143D01*
X19050Y278486D01*
D02*
G37*
G36*
X107500Y279670D02*
X104001D01*
Y267170D01*
X107500D01*
Y279670D01*
D02*
G37*
G36*
X182000Y281670D02*
X157000D01*
Y251670D01*
X182000D01*
Y281670D01*
D02*
G37*
G36*
X231600Y278136D02*
X228990Y277793D01*
X226557Y276785D01*
X224468Y275182D01*
X222865Y273093D01*
X221857Y270660D01*
X221514Y268050D01*
X221857Y265439D01*
X222865Y263007D01*
X224468Y260918D01*
X226557Y259315D01*
X228990Y258307D01*
X231600Y257964D01*
X234210Y258307D01*
X236643Y259315D01*
X238732Y260918D01*
X240335Y263007D01*
X241343Y265439D01*
X241686Y268050D01*
X241343Y270660D01*
X240335Y273093D01*
X238732Y275182D01*
X236643Y276785D01*
X234210Y277793D01*
X231600Y278136D01*
D02*
G37*
%LPD*%
D10*
X197000Y285500D02*
D03*
Y264500D02*
D03*
D11*
X11700Y188650D02*
D03*
Y169650D02*
D03*
Y118850D02*
D03*
Y137850D02*
D03*
X136000Y208500D02*
D03*
Y227500D02*
D03*
X157000Y208500D02*
D03*
Y227500D02*
D03*
X234000Y80500D02*
D03*
Y99500D02*
D03*
X94000Y227500D02*
D03*
Y208500D02*
D03*
X115000Y227500D02*
D03*
Y208500D02*
D03*
X178000Y227500D02*
D03*
Y208500D02*
D03*
X234000Y147500D02*
D03*
Y128500D02*
D03*
D12*
X49800Y104980D02*
D03*
Y199980D02*
D03*
D13*
X122000Y98000D02*
D03*
X130000D02*
D03*
X138000D02*
D03*
X146000D02*
D03*
X154000D02*
D03*
X162000D02*
D03*
X170000D02*
D03*
X178000D02*
D03*
Y182000D02*
D03*
X170000D02*
D03*
X162000D02*
D03*
X154000D02*
D03*
X146000D02*
D03*
X138000D02*
D03*
X130000D02*
D03*
X122000D02*
D03*
D14*
X192000Y112000D02*
D03*
Y120000D02*
D03*
Y128000D02*
D03*
Y136000D02*
D03*
Y144000D02*
D03*
Y152000D02*
D03*
Y160000D02*
D03*
Y168000D02*
D03*
X108000D02*
D03*
Y160000D02*
D03*
Y152000D02*
D03*
Y144000D02*
D03*
Y136000D02*
D03*
Y128000D02*
D03*
Y120000D02*
D03*
Y112000D02*
D03*
D15*
X159500Y74000D02*
D03*
X140500D02*
D03*
D16*
X80500Y321670D02*
D03*
X169500D02*
D03*
Y266670D02*
D03*
X80500D02*
D03*
D17*
X141000Y265670D02*
D03*
X133000D02*
D03*
X125000D02*
D03*
X117001D02*
D03*
X109001D02*
D03*
D18*
X128000Y142000D02*
Y151000D01*
X122000Y136000D02*
X128000Y142000D01*
X108000Y136000D02*
X122000D01*
X49800Y166200D02*
Y199980D01*
Y166200D02*
X56000Y160000D01*
X108000D01*
X49800Y104980D02*
Y145800D01*
X56000Y152000D01*
X108000D01*
X157000Y227500D02*
Y237000D01*
X133000Y251000D02*
Y265670D01*
X146000Y182000D02*
Y191000D01*
X136000Y201000D02*
X146000Y191000D01*
X136000Y201000D02*
Y208500D01*
X11700Y188650D02*
X26650D01*
X37980Y199980D01*
X49800D01*
X11700Y118850D02*
X19150D01*
X33020Y104980D01*
X49800D01*
X192000Y152000D02*
X205000D01*
X209000Y156000D01*
X217000D01*
X192000Y144000D02*
X206000D01*
X208000Y142000D01*
X217000D01*
X206000Y111000D02*
X217000Y100000D01*
X192000Y120000D02*
X201000D01*
X206000Y115000D01*
Y111000D02*
Y115000D01*
X192000Y128000D02*
X203000D01*
X216000Y115000D01*
X192000Y136000D02*
X207000D01*
X215000Y128000D01*
X217000D01*
X178000Y170000D02*
Y182000D01*
X169000Y161000D02*
X178000Y170000D01*
X216000Y115000D02*
X217000D01*
X73000Y70000D02*
Y90000D01*
X77000Y94000D01*
X85000D01*
X217000Y128000D02*
X234000D01*
X217000Y100000D02*
X234000D01*
X235000Y147500D02*
X241500D01*
X244000Y145000D01*
Y83000D02*
Y145000D01*
X241500Y80500D02*
X244000Y83000D01*
X234000Y80500D02*
X235000D01*
X241500D01*
X85000Y108000D02*
X92000D01*
X96000Y112000D01*
X108000D01*
X85000Y122000D02*
X92000D01*
X94000Y120000D01*
X108000D01*
X85000Y136000D02*
X87000D01*
X95000Y128000D01*
X108000D01*
X178000Y98000D02*
Y115000D01*
X171000Y122000D02*
X178000Y115000D01*
X159000Y120000D02*
X170000Y109000D01*
Y98000D02*
Y109000D01*
X118235Y80000D02*
X125000D01*
X130000Y85000D01*
Y98000D01*
X102000Y80000D02*
Y88000D01*
X112000Y98000D01*
X122000D01*
X157000Y120000D02*
X159000D01*
X169500Y146500D02*
Y147500D01*
X182000Y160000D01*
X192000D01*
X44000Y31000D02*
Y53000D01*
Y31000D02*
X57150Y17850D01*
Y16510D02*
Y17850D01*
Y41910D02*
X85000Y69760D01*
Y80000D01*
X44000Y53000D02*
X53000Y62000D01*
X65000D01*
X73000Y70000D01*
X229000Y30000D02*
X235000Y36000D01*
X120000Y34000D02*
X124000Y30000D01*
X121440D02*
X124000D01*
X229000D01*
X235000Y36000D02*
Y80500D01*
Y81500D02*
X235500Y81000D01*
X235000Y80500D02*
Y81500D01*
X125000Y249000D02*
Y265670D01*
Y249000D02*
X136000Y238000D01*
Y227500D02*
Y238000D01*
X154000Y182000D02*
Y194000D01*
X157000Y197000D01*
Y208500D01*
X133000Y251000D02*
X142000Y242000D01*
X152000D01*
X157000Y237000D01*
D19*
X130000Y182000D02*
Y191000D01*
X126000Y195000D02*
X130000Y191000D01*
Y182000D02*
X138000D01*
X120000Y68000D02*
X126000Y74000D01*
X140500D01*
X138000Y84000D02*
X140500Y81500D01*
X138000Y84000D02*
Y98000D01*
X140500Y74000D02*
Y81500D01*
X138000Y98000D02*
X146000D01*
X154000D02*
X162000D01*
X159500Y74000D02*
Y80500D01*
X154000Y86000D02*
X159500Y80500D01*
X154000Y86000D02*
Y98000D01*
X209550Y42910D02*
Y58450D01*
X194000Y74000D02*
X209550Y58450D01*
X159500Y74000D02*
X194000D01*
X118000Y195000D02*
X126000D01*
X115000Y198000D02*
X118000Y195000D01*
X115000Y198000D02*
Y208500D01*
X94000Y227500D02*
X115000D01*
X109001Y246000D02*
Y265670D01*
Y246000D02*
X115000Y240000D01*
Y227500D02*
Y240000D01*
X141000Y265670D02*
Y283000D01*
X119000Y305000D02*
X141000Y283000D01*
X97000Y305000D02*
X119000D01*
X83000Y291000D02*
X97000Y305000D01*
X66000Y291000D02*
X83000D01*
X59000Y284000D02*
X66000Y291000D01*
X76000Y214000D02*
X81500Y208500D01*
X94000D01*
X11700Y137850D02*
Y154000D01*
Y169650D01*
Y154000D02*
X36000D01*
X178000Y208500D02*
X194500D01*
X178000Y227500D02*
Y237000D01*
X197000Y256000D01*
Y264500D01*
X162000Y182000D02*
X170000D01*
X194500Y208500D02*
X210000Y193000D01*
X192000Y160000D02*
X204000D01*
X210000Y166000D01*
Y193000D01*
X162000Y171000D02*
Y182000D01*
X94000Y194000D02*
Y208500D01*
Y194000D02*
X106000Y182000D01*
X122000D01*
X130000Y166000D02*
Y182000D01*
Y166000D02*
X138000Y158000D01*
Y98000D02*
Y158000D01*
X154000Y98000D02*
Y111000D01*
X146000Y119000D02*
X154000Y111000D01*
X146000Y119000D02*
Y155000D01*
X162000Y171000D01*
X59000Y245000D02*
Y284000D01*
Y245000D02*
X76000Y228000D01*
Y214000D02*
Y228000D01*
X107950Y16510D02*
X120000Y28560D01*
X121440Y30000D01*
X120000Y28560D02*
Y34000D01*
Y68000D01*
X109001Y265670D02*
Y279000D01*
X118000Y288000D01*
D20*
X168000Y200000D02*
Y236000D01*
X162000Y194000D02*
X168000Y200000D01*
X162000Y182000D02*
Y194000D01*
X188500Y285500D02*
X197000D01*
X168000Y236000D02*
X185000Y253000D01*
Y282000D01*
X188500Y285500D01*
D21*
X209550Y42910D02*
D03*
Y17510D02*
D03*
X184150Y42910D02*
D03*
Y17510D02*
D03*
X158750Y42910D02*
D03*
Y17510D02*
D03*
X133350Y42910D02*
D03*
Y17510D02*
D03*
X107950Y42910D02*
D03*
Y17510D02*
D03*
X82550Y42910D02*
D03*
Y17510D02*
D03*
X57150Y42910D02*
D03*
Y17510D02*
D03*
X31750Y42910D02*
D03*
X19050Y243000D02*
D03*
Y268400D02*
D03*
Y293800D02*
D03*
X231600Y242650D02*
D03*
Y268050D02*
D03*
Y293450D02*
D03*
D22*
X31750Y17510D02*
D03*
D23*
X19050Y319200D02*
D03*
X231600Y318850D02*
D03*
D24*
X103001Y293670D02*
D03*
X147000D02*
D03*
D25*
X36000Y154000D02*
D03*
X217000Y156000D02*
D03*
Y142000D02*
D03*
Y128000D02*
D03*
Y114000D02*
D03*
Y100000D02*
D03*
X169000Y147000D02*
D03*
Y161000D02*
D03*
X85000Y80000D02*
D03*
Y94000D02*
D03*
X128000Y151000D02*
D03*
X85000Y136000D02*
D03*
Y122000D02*
D03*
Y108000D02*
D03*
X157000Y122000D02*
D03*
X171000D02*
D03*
X102000Y80000D02*
D03*
X117000D02*
D03*
X118000Y288000D02*
D03*
X95000Y244000D02*
D03*
M02*
